# xmcd CD database file
#
# Track frame offsets:
#	150
#	36680
#	61398
#	93748
#	109625
#	138988
#	175158
#	195608
#	223350
#	257368
#	284278
#
# Disc length: 4087 seconds
#
# Revision: 0
# Processed by: cddbd v1.5.1PL0 Copyright (c) Steve Scherf et al.
# Submitted via: CDex 1.51
#
DISCID=aa0ff50b
DTITLE=Red Holloway - Brother Red
DYEAR=1964
DGENRE=Jazz
TTITLE0=Wives and Lovers
TTITLE1=This Can't Be Love
TTITLE2=Something Funny
TTITLE3=Brother Red
TTITLE4=Denise
TTITLE5=No Tears
TTITLE6=Shout Brother
TTITLE7=Rail Head
TTITLE8=What's New
TTITLE9=Bossa Nova West
TTITLE10=Redwood City
EXTD=YEAR: 1964
EXTT0=
EXTT1=
EXTT2=
EXTT3=
EXTT4=
EXTT5=
EXTT6=
EXTT7=
EXTT8=
EXTT9=
EXTT10=
PLAYORDER=
